<svg xmlns="http://www.w3.org/2000/svg" xmlns:xlink="http://www.w3.org/1999/xlink" width="100" zoomAndPan="magnify" viewBox="0 0 75 74.999997" height="100" preserveAspectRatio="xMidYMid meet" version="1.0"><defs><g/><clipPath id="id1"><path d="M 14.679688 5.398438 L 60.429688 5.398438 L 60.429688 57.898438 L 14.679688 57.898438 Z M 14.679688 5.398438 " clip-rule="nonzero"/></clipPath></defs><rect x="-7.5" width="90" fill="rgb(100%, 100%, 100%)" y="-7.5" height="89.999996" fill-opacity="1"/><rect x="-7.5" width="90" fill="rgb(6.669617%, 65.098572%, 23.919678%)" y="-7.5" height="89.999996" fill-opacity="1"/><rect x="-7.5" width="90" fill="rgb(100%, 100%, 100%)" y="-7.5" height="89.999996" fill-opacity="1"/><rect x="-7.5" width="90" fill="rgb(6.669617%, 65.098572%, 23.919678%)" y="-7.5" height="89.999996" fill-opacity="1"/><g clip-path="url(#id1)"><path fill="rgb(25.099182%, 25.099182%, 25.489807%)" d="M 39.386719 5.429688 C 39.269531 5.445312 39.03125 5.527344 39.03125 5.550781 C 39.03125 5.566406 39.148438 5.570312 39.390625 5.574219 C 39.609375 5.578125 39.703125 5.59375 39.882812 5.65625 C 40.019531 5.703125 40.070312 5.730469 40.070312 5.75 C 40.070312 5.765625 39.96875 5.765625 39.839844 5.742188 C 39.410156 5.671875 38.398438 5.707031 37.90625 5.804688 C 37.796875 5.828125 37.296875 5.984375 37.167969 6.035156 C 37.03125 6.085938 36.9375 6.136719 36.800781 6.226562 L 36.675781 6.3125 L 36.738281 6.320312 C 36.8125 6.328125 36.898438 6.316406 37.089844 6.261719 C 37.277344 6.207031 37.417969 6.179688 37.503906 6.179688 C 37.617188 6.179688 37.609375 6.1875 37.335938 6.296875 C 36.816406 6.507812 36.515625 6.726562 36.195312 7.125 C 36.144531 7.1875 36.082031 7.265625 36.058594 7.296875 C 36.019531 7.359375 36 7.375 35.792969 7.5 C 35.660156 7.585938 35.382812 7.855469 35.285156 7.996094 C 35.210938 8.109375 35.144531 8.246094 35.148438 8.277344 C 35.152344 8.292969 35.167969 8.300781 35.226562 8.300781 C 35.261719 8.304688 35.296875 8.304688 35.296875 8.308594 C 35.296875 8.308594 35.238281 8.421875 35.171875 8.558594 C 34.976562 8.953125 34.917969 9.109375 34.90625 9.265625 C 34.894531 9.402344 34.941406 9.601562 34.984375 9.601562 C 34.992188 9.601562 35 9.582031 35.007812 9.558594 C 35.023438 9.503906 35.050781 9.507812 35.066406 9.570312 C 35.074219 9.609375 35.066406 10.464844 35.058594 10.933594 L 35.054688 11.011719 L 35.089844 11.011719 C 35.128906 11.011719 35.128906 11.011719 35.152344 10.917969 C 35.167969 10.863281 35.183594 10.820312 35.191406 10.816406 C 35.210938 10.8125 35.242188 11.027344 35.289062 11.484375 C 35.296875 11.527344 35.300781 11.5625 35.304688 11.558594 C 35.320312 11.542969 35.347656 11.34375 35.355469 11.1875 C 35.363281 11.011719 35.367188 11.003906 35.398438 10.976562 C 35.429688 10.949219 35.429688 10.949219 35.4375 10.722656 C 35.441406 10.59375 35.445312 10.480469 35.453125 10.472656 C 35.460938 10.445312 35.480469 10.457031 35.480469 10.492188 C 35.480469 10.507812 35.507812 10.605469 35.535156 10.714844 C 35.640625 11.082031 35.695312 11.367188 35.714844 11.671875 C 35.742188 12.058594 35.664062 12.300781 35.359375 12.765625 C 35.285156 12.878906 35.21875 12.992188 35.214844 13.015625 C 35.203125 13.074219 35.238281 13.214844 35.277344 13.253906 C 35.34375 13.320312 35.519531 13.398438 35.667969 13.425781 C 35.816406 13.449219 35.886719 13.515625 35.871094 13.613281 C 35.867188 13.640625 35.847656 13.710938 35.828125 13.765625 C 35.777344 13.910156 35.777344 13.96875 35.828125 14.046875 C 35.863281 14.097656 35.945312 14.164062 35.992188 14.183594 C 36 14.183594 36 14.207031 35.988281 14.246094 C 35.964844 14.324219 35.96875 14.53125 35.992188 14.589844 C 36.011719 14.632812 36.042969 14.65625 36.128906 14.683594 C 36.234375 14.714844 36.25 14.75 36.285156 14.984375 C 36.3125 15.191406 36.34375 15.304688 36.398438 15.398438 C 36.449219 15.484375 36.539062 15.574219 36.621094 15.613281 C 36.695312 15.648438 36.84375 15.6875 36.890625 15.679688 C 36.910156 15.675781 36.953125 15.671875 36.988281 15.667969 C 37.101562 15.652344 37.238281 15.597656 37.722656 15.371094 C 38.335938 15.082031 38.679688 14.96875 38.910156 14.984375 C 39.027344 14.988281 39.125 15.027344 39.273438 15.121094 C 39.453125 15.238281 39.789062 15.550781 40.070312 15.871094 C 40.410156 16.253906 40.835938 16.808594 40.835938 16.871094 C 40.835938 16.875 40.777344 16.878906 40.703125 16.878906 L 40.570312 16.878906 L 40.394531 17.230469 C 40.195312 17.625 40.078125 17.832031 39.960938 18.007812 C 39.761719 18.296875 39.671875 18.480469 39.578125 18.78125 C 39.476562 19.128906 39.382812 19.3125 39.171875 19.601562 C 38.992188 19.847656 38.734375 20.238281 38.628906 20.421875 C 38.574219 20.511719 38.445312 20.753906 38.339844 20.957031 C 38.042969 21.53125 37.90625 21.761719 37.652344 22.09375 C 37.261719 22.609375 36.355469 23.578125 35.996094 23.867188 C 35.660156 24.132812 35.460938 24.238281 35.179688 24.296875 C 35.117188 24.308594 35.03125 24.332031 34.988281 24.347656 C 34.894531 24.375 34.679688 24.492188 34.542969 24.582031 L 34.453125 24.644531 L 34.285156 24.605469 C 33.820312 24.503906 34.054688 24.515625 32.242188 24.503906 C 31.351562 24.5 30.453125 24.496094 30.238281 24.496094 L 29.847656 24.496094 L 29.832031 24.460938 C 29.792969 24.378906 29.671875 24.210938 29.597656 24.136719 C 29.46875 24.011719 29.308594 23.9375 29.160156 23.9375 C 29.117188 23.9375 29.070312 23.949219 29.046875 23.957031 C 28.988281 23.988281 28.882812 24.082031 28.824219 24.15625 C 28.796875 24.195312 28.769531 24.222656 28.765625 24.222656 C 28.75 24.222656 28.570312 24.015625 28.464844 23.871094 C 28.339844 23.707031 28.167969 23.457031 28.175781 23.453125 C 28.175781 23.449219 28.199219 23.4375 28.230469 23.421875 C 28.304688 23.382812 28.398438 23.304688 28.425781 23.257812 L 28.449219 23.214844 L 26.910156 20.21875 C 25.816406 18.09375 25.363281 17.222656 25.351562 17.226562 C 25.34375 17.226562 25.324219 17.230469 25.316406 17.234375 C 25.300781 17.238281 25.265625 17.191406 25.179688 17.058594 C 25.070312 16.886719 25.023438 16.824219 25.007812 16.835938 C 25.007812 16.839844 25.066406 16.929688 25.140625 17.039062 C 25.21875 17.148438 25.277344 17.242188 25.277344 17.25 C 25.277344 17.265625 25.050781 17.363281 24.921875 17.402344 C 24.863281 17.421875 24.769531 17.441406 24.710938 17.445312 L 24.605469 17.457031 L 24.5625 17.414062 C 24.496094 17.339844 24.335938 17.117188 24.082031 16.734375 C 23.925781 16.5 23.824219 16.363281 23.800781 16.347656 C 23.746094 16.3125 23.636719 16.324219 23.546875 16.367188 C 23.402344 16.441406 23.375 16.480469 22.613281 17.6875 C 22.226562 18.304688 21.902344 18.820312 21.894531 18.835938 C 21.878906 18.859375 21.902344 18.898438 22.078125 19.195312 C 22.484375 19.863281 22.976562 20.613281 23.6875 21.632812 L 23.90625 21.953125 L 23.796875 22.390625 L 23.925781 23.40625 L 24.0625 24.421875 L 24.308594 24.675781 C 24.695312 25.070312 25.011719 25.320312 25.335938 25.472656 C 25.417969 25.515625 25.496094 25.554688 25.515625 25.5625 C 25.726562 25.675781 26.261719 25.722656 27.429688 25.738281 L 28.101562 25.746094 L 28.203125 25.851562 C 28.371094 26.03125 28.492188 26.140625 28.636719 26.246094 C 28.824219 26.382812 28.839844 26.386719 28.933594 26.378906 C 29.023438 26.371094 29.167969 26.335938 29.335938 26.28125 L 29.453125 26.246094 L 29.652344 26.308594 C 30.371094 26.542969 30.945312 26.734375 31.234375 26.839844 C 31.417969 26.910156 31.585938 26.972656 31.609375 26.980469 C 31.664062 27 31.667969 27.019531 31.628906 27.078125 L 31.597656 27.121094 L 31.640625 27.140625 C 31.660156 27.148438 32.101562 27.320312 32.621094 27.523438 C 33.140625 27.726562 33.5625 27.898438 33.5625 27.902344 C 33.5625 27.910156 31.324219 27.914062 28.589844 27.914062 C 25.597656 27.914062 23.589844 27.917969 23.550781 27.925781 C 23.519531 27.929688 23.417969 27.941406 23.328125 27.945312 L 23.164062 27.953125 L 23.164062 27.777344 L 19.644531 27.777344 C 17.378906 27.777344 16.070312 27.773438 15.980469 27.765625 C 15.800781 27.75 15.714844 27.726562 15.601562 27.671875 C 15.453125 27.597656 15.328125 27.464844 15.257812 27.300781 C 15.1875 27.136719 15.152344 26.839844 15.175781 26.597656 C 15.214844 26.132812 15.386719 25.890625 15.738281 25.785156 L 15.824219 25.757812 L 19.496094 25.753906 L 23.164062 25.753906 L 23.164062 25.609375 C 23.164062 25.484375 23.167969 25.460938 23.1875 25.429688 C 23.203125 25.414062 23.222656 25.375 23.230469 25.351562 C 23.246094 25.304688 23.246094 25.304688 23.257812 25.332031 C 23.269531 25.371094 23.289062 25.34375 23.289062 25.289062 C 23.289062 25.234375 23.261719 25.207031 23.117188 25.109375 C 22.960938 25.003906 22.796875 24.847656 22.757812 24.761719 C 22.738281 24.71875 22.730469 24.679688 22.730469 24.617188 C 22.730469 24.519531 22.722656 24.515625 22.609375 24.527344 C 22.507812 24.539062 22.496094 24.550781 22.574219 24.558594 C 22.613281 24.5625 22.660156 24.574219 22.675781 24.582031 C 22.707031 24.597656 22.710938 24.605469 22.714844 24.667969 C 22.71875 24.792969 22.78125 24.90625 22.9375 25.082031 C 23.117188 25.285156 23.15625 25.34375 23.148438 25.417969 L 23.144531 25.464844 L 22.816406 25.46875 L 22.484375 25.46875 L 22.484375 25.40625 L 19.359375 25.402344 C 16.382812 25.402344 16.230469 25.398438 16.160156 25.378906 C 15.953125 25.316406 15.816406 25.210938 15.742188 25.046875 C 15.671875 24.902344 15.65625 24.824219 15.648438 24.582031 C 15.644531 24.394531 15.648438 24.347656 15.667969 24.242188 C 15.726562 23.957031 15.867188 23.792969 16.117188 23.707031 C 16.179688 23.6875 16.308594 23.6875 19.335938 23.683594 L 22.484375 23.679688 L 22.484375 23.433594 L 16.09375 23.433594 L 16.007812 23.460938 C 15.890625 23.496094 15.804688 23.546875 15.699219 23.648438 C 15.554688 23.78125 15.464844 23.949219 15.410156 24.164062 C 15.378906 24.292969 15.363281 24.628906 15.382812 24.78125 C 15.417969 25.019531 15.503906 25.226562 15.632812 25.378906 L 15.707031 25.46875 L 15.667969 25.476562 C 15.28125 25.558594 14.992188 25.890625 14.882812 26.382812 C 14.851562 26.53125 14.851562 26.984375 14.882812 27.132812 C 14.953125 27.453125 15.050781 27.644531 15.242188 27.824219 C 15.292969 27.871094 15.371094 27.929688 15.417969 27.953125 L 15.503906 27.996094 L 15.097656 28 L 14.691406 28 L 14.691406 57.898438 L 16.445312 57.898438 L 16.453125 55.933594 C 16.457031 54.855469 16.464844 51.753906 16.46875 49.046875 C 16.476562 41.058594 16.5 30.828125 16.507812 30.195312 L 16.511719 29.613281 L 18.074219 29.621094 C 18.929688 29.625 19.636719 29.632812 19.636719 29.632812 C 19.636719 29.632812 19.644531 31.59375 19.652344 33.992188 C 19.6875 44.800781 19.742188 54.347656 19.777344 55.96875 C 19.792969 56.714844 19.804688 56.914062 19.832031 56.933594 C 19.886719 56.972656 20.628906 56.941406 21.382812 56.867188 L 21.457031 56.859375 L 21.457031 29.5625 L 21.609375 29.570312 C 21.765625 29.578125 22.71875 29.59375 24.617188 29.617188 C 25.210938 29.621094 26.082031 29.632812 26.558594 29.640625 C 30.140625 29.691406 35.332031 29.71875 36.996094 29.691406 C 37.476562 29.679688 37.984375 29.652344 38.386719 29.609375 C 38.675781 29.578125 39.507812 29.429688 39.875 29.34375 C 39.996094 29.316406 40.011719 29.300781 40.035156 29.1875 C 40.082031 28.992188 40.15625 28.007812 40.128906 27.976562 C 40.113281 27.964844 39.78125 27.953125 39.039062 27.9375 C 37.839844 27.914062 37.480469 27.894531 37.367188 27.851562 C 37.332031 27.839844 37.335938 27.835938 37.496094 27.757812 C 37.863281 27.574219 38.378906 27.191406 39.128906 26.554688 C 39.28125 26.425781 39.40625 26.320312 39.414062 26.320312 C 39.417969 26.320312 39.441406 26.347656 39.464844 26.378906 C 39.582031 26.53125 39.8125 26.714844 40.0625 26.851562 C 40.289062 26.976562 40.394531 27.050781 40.507812 27.164062 C 40.59375 27.25 40.621094 27.285156 40.683594 27.414062 C 40.78125 27.605469 40.847656 27.789062 40.964844 28.164062 C 41.246094 29.082031 41.433594 29.605469 41.757812 30.410156 C 41.84375 30.621094 41.984375 30.964844 42.070312 31.175781 C 42.300781 31.75 42.394531 31.933594 42.644531 32.28125 C 42.824219 32.527344 42.886719 32.621094 42.925781 32.722656 C 42.949219 32.777344 43.007812 32.882812 43.054688 32.964844 C 43.183594 33.179688 43.226562 33.261719 43.269531 33.375 C 43.355469 33.597656 43.40625 33.894531 43.390625 34.035156 C 43.363281 34.25 43.214844 34.308594 42.183594 34.507812 C 41.589844 34.621094 41.394531 34.664062 40.992188 34.753906 C 40.660156 34.832031 40.324219 34.898438 40.070312 34.941406 C 39.839844 34.980469 39.265625 35.082031 38.894531 35.15625 C 38.367188 35.257812 38.089844 35.3125 37.878906 35.347656 C 37.640625 35.386719 36.519531 35.574219 36.128906 35.636719 C 35.960938 35.664062 35.664062 35.710938 35.46875 35.742188 C 34.773438 35.855469 34.371094 35.925781 34.175781 35.964844 C 33.019531 36.210938 32.433594 36.445312 31.785156 36.921875 C 31.203125 37.351562 30.976562 37.660156 30.898438 38.117188 C 30.828125 38.570312 30.898438 39.09375 31.109375 39.632812 C 31.199219 39.851562 31.40625 40.269531 31.5625 40.53125 C 31.832031 40.988281 31.859375 41.105469 31.777344 41.492188 C 31.734375 41.699219 31.71875 41.890625 31.722656 42.152344 L 31.730469 42.382812 L 31.78125 42.535156 C 31.890625 42.847656 32.058594 43.144531 32.28125 43.410156 C 32.414062 43.570312 32.929688 44.078125 33.105469 44.226562 C 33.292969 44.382812 33.371094 44.445312 33.519531 44.542969 C 33.757812 44.703125 33.90625 44.886719 34.140625 45.3125 C 34.179688 45.382812 34.339844 45.691406 34.496094 45.996094 C 34.773438 46.542969 34.933594 46.835938 35 46.933594 C 35.113281 47.105469 35.261719 47.417969 35.519531 48.035156 C 35.753906 48.601562 35.984375 49.132812 36.199219 49.605469 C 36.300781 49.832031 36.460938 50.207031 36.554688 50.4375 C 36.644531 50.671875 36.746094 50.914062 36.777344 50.976562 C 36.847656 51.117188 36.941406 51.226562 37.019531 51.246094 C 37.121094 51.273438 37.140625 51.269531 37.535156 51.144531 C 37.890625 51.027344 37.96875 51.007812 38.097656 51.007812 C 38.230469 51.007812 38.300781 51.035156 38.390625 51.121094 C 38.539062 51.269531 38.703125 51.621094 38.773438 51.953125 C 38.808594 52.132812 38.808594 52.429688 38.773438 52.574219 C 38.726562 52.742188 38.648438 52.886719 38.535156 53.007812 C 38.40625 53.144531 38.273438 53.230469 37.898438 53.421875 C 37.535156 53.613281 37.1875 53.808594 36.910156 53.988281 C 36.859375 54.019531 36.734375 54.097656 36.625 54.160156 C 36.515625 54.222656 36.332031 54.335938 36.21875 54.410156 C 35.824219 54.671875 35.582031 54.777344 34.621094 55.121094 C 33.703125 55.445312 33.386719 55.589844 33.25 55.742188 C 33.1875 55.808594 33.132812 55.929688 33.132812 55.996094 C 33.132812 56.164062 33.367188 56.367188 33.734375 56.511719 C 33.898438 56.574219 34.308594 56.65625 34.632812 56.683594 C 34.683594 56.6875 34.765625 56.695312 34.820312 56.703125 C 35.027344 56.726562 35.476562 56.75 36 56.765625 C 36.773438 56.789062 37.484375 56.765625 38.113281 56.695312 C 38.527344 56.648438 38.855469 56.636719 39.425781 56.644531 C 39.78125 56.652344 39.988281 56.660156 40.140625 56.675781 C 40.257812 56.6875 40.355469 56.699219 40.355469 56.703125 C 40.359375 56.707031 40.390625 56.851562 40.425781 57.023438 C 40.460938 57.195312 40.5 57.378906 40.507812 57.425781 L 40.527344 57.511719 L 40.875 57.527344 C 41.574219 57.554688 42.183594 57.570312 42.195312 57.558594 C 42.222656 57.535156 42.246094 56.960938 42.3125 54.648438 C 42.335938 53.859375 42.371094 52.597656 42.394531 51.839844 C 42.449219 49.753906 42.46875 49.320312 42.492188 49.292969 C 42.511719 49.273438 42.535156 49.292969 43.347656 49.835938 C 43.675781 50.058594 43.90625 50.195312 43.960938 50.207031 C 44.023438 50.21875 44.066406 50.183594 44.316406 49.921875 C 44.777344 49.4375 44.878906 49.347656 44.972656 49.347656 C 45.046875 49.347656 45.234375 49.410156 45.410156 49.496094 C 46.300781 49.929688 47.816406 51.136719 48.421875 51.898438 C 48.542969 52.046875 48.601562 52.148438 48.648438 52.265625 C 48.710938 52.441406 48.816406 52.632812 48.988281 52.890625 C 49.246094 53.277344 49.328125 53.417969 49.449219 53.699219 C 49.667969 54.207031 49.851562 55.0625 49.855469 55.574219 C 49.855469 55.75 49.855469 55.761719 49.816406 55.875 C 49.792969 55.941406 49.726562 56.097656 49.664062 56.226562 C 49.460938 56.644531 49.421875 56.78125 49.433594 57.011719 C 49.441406 57.179688 49.46875 57.246094 49.582031 57.351562 C 49.675781 57.4375 49.773438 57.492188 49.941406 57.550781 C 50.148438 57.617188 50.230469 57.628906 50.574219 57.628906 C 50.9375 57.628906 51.003906 57.621094 51.292969 57.527344 C 51.539062 57.449219 51.636719 57.410156 51.816406 57.320312 C 52.3125 57.074219 52.484375 56.847656 52.566406 56.339844 C 52.582031 56.253906 52.589844 56.09375 52.59375 55.824219 C 52.605469 55.121094 52.550781 54.433594 52.441406 53.867188 C 52.417969 53.746094 52.390625 53.574219 52.382812 53.480469 C 52.332031 53.042969 52.304688 52.191406 52.289062 50.421875 C 52.265625 48.421875 52.242188 48.09375 52.097656 47.984375 C 52.011719 47.921875 51.777344 47.855469 51.539062 47.832031 C 51.308594 47.808594 50.773438 47.789062 50.542969 47.796875 C 50.171875 47.8125 50.070312 47.828125 49.679688 47.941406 C 49.472656 48.003906 49.414062 48.007812 49.273438 47.992188 C 48.992188 47.953125 48.121094 47.695312 47.519531 47.46875 C 47.15625 47.332031 46.714844 47.128906 46.542969 47.023438 C 46.46875 46.972656 46.335938 46.84375 46.199219 46.691406 C 45.976562 46.4375 45.582031 46.179688 43.613281 44.980469 C 42.972656 44.59375 42.707031 44.429688 42.4375 44.261719 L 42.25 44.144531 L 42.25 42.402344 L 42.246094 40.664062 L 42.304688 40.65625 C 43.378906 40.507812 43.757812 40.472656 44.695312 40.433594 C 44.941406 40.421875 45.28125 40.40625 45.449219 40.402344 C 45.734375 40.390625 46.183594 40.367188 46.636719 40.339844 C 46.75 40.332031 46.996094 40.320312 47.1875 40.308594 C 47.375 40.296875 47.65625 40.28125 47.804688 40.273438 C 47.953125 40.261719 48.234375 40.246094 48.429688 40.234375 C 48.621094 40.226562 48.867188 40.210938 48.96875 40.203125 C 49.324219 40.179688 50.464844 40.105469 50.671875 40.09375 C 50.789062 40.085938 50.960938 40.074219 51.058594 40.066406 C 51.152344 40.058594 51.371094 40.046875 51.546875 40.035156 C 51.71875 40.027344 51.9375 40.011719 52.035156 40.007812 C 52.128906 40 52.417969 39.984375 52.675781 39.96875 C 52.933594 39.957031 53.210938 39.9375 53.289062 39.933594 C 53.542969 39.910156 54.078125 39.894531 54.699219 39.890625 C 55.222656 39.890625 55.335938 39.894531 55.472656 39.910156 C 55.878906 39.964844 56.019531 40.035156 56.289062 40.316406 C 56.5625 40.601562 56.621094 40.738281 56.695312 41.238281 C 56.757812 41.683594 56.9375 43.371094 57.066406 44.707031 C 57.089844 44.960938 57.121094 45.277344 57.136719 45.40625 C 57.148438 45.535156 57.164062 45.714844 57.171875 45.804688 C 57.179688 45.898438 57.191406 46.015625 57.195312 46.066406 C 57.203125 46.117188 57.230469 46.386719 57.253906 46.671875 C 57.277344 46.953125 57.300781 47.234375 57.308594 47.300781 C 57.3125 47.363281 57.328125 47.53125 57.339844 47.667969 C 57.367188 48.0625 57.453125 48.914062 57.503906 49.378906 C 57.589844 50.105469 57.648438 50.707031 57.679688 51.199219 C 57.6875 51.3125 57.699219 51.46875 57.703125 51.550781 C 57.710938 51.632812 57.738281 52.050781 57.765625 52.480469 C 57.792969 52.914062 57.824219 53.4375 57.839844 53.648438 C 57.851562 53.859375 57.886719 54.410156 57.914062 54.871094 C 57.972656 55.886719 58.019531 56.574219 58.046875 56.863281 C 58.070312 57.152344 58.117188 57.464844 58.140625 57.488281 C 58.164062 57.511719 58.359375 57.535156 58.582031 57.546875 C 58.804688 57.554688 60.398438 57.558594 60.410156 57.550781 C 60.410156 57.546875 60.390625 57.386719 60.359375 57.195312 C 60.292969 56.800781 60.230469 56.34375 60.140625 55.597656 C 60.035156 54.738281 59.960938 54.191406 59.769531 52.847656 C 59.429688 50.460938 59.222656 48.953125 59.070312 47.757812 C 58.914062 46.515625 58.703125 44.976562 58.464844 43.292969 C 58.085938 40.632812 58.015625 39.984375 58.027344 39.398438 C 58.03125 39.191406 58.035156 39.183594 58.070312 39.089844 C 58.113281 38.992188 58.121094 38.902344 58.101562 38.84375 C 58.082031 38.792969 58.011719 38.734375 57.894531 38.667969 C 57.832031 38.636719 57.753906 38.578125 57.722656 38.546875 C 57.582031 38.40625 57.464844 38.117188 56.835938 36.359375 C 56.476562 35.367188 56.320312 34.9375 56.203125 34.632812 C 56.160156 34.515625 56.078125 34.300781 56.023438 34.15625 C 55.792969 33.554688 55.382812 32.410156 55.371094 32.332031 L 55.363281 32.285156 L 55.492188 32.1875 C 55.5625 32.132812 55.648438 32.054688 55.683594 32.019531 L 55.75 31.949219 L 55.75 31.863281 C 55.75 31.746094 55.726562 31.640625 55.601562 31.140625 C 55.457031 30.566406 55.40625 30.265625 55.359375 29.695312 C 55.324219 29.253906 55.316406 29.019531 55.316406 28.476562 C 55.316406 27.542969 55.339844 27.269531 55.460938 26.667969 C 55.628906 25.824219 55.824219 25.230469 56.214844 24.359375 C 56.339844 24.074219 56.367188 23.976562 56.320312 23.953125 C 56.183594 23.878906 55.191406 24.109375 54.691406 24.328125 C 54.390625 24.460938 54.3125 24.542969 54.125 24.925781 C 53.953125 25.273438 53.863281 25.558594 53.789062 26 C 53.683594 26.636719 53.667969 26.832031 53.675781 27.792969 C 53.679688 28.652344 53.683594 28.722656 53.769531 29.5 C 53.835938 30.070312 53.910156 30.519531 54.085938 31.421875 C 54.300781 32.496094 54.542969 33.574219 54.839844 34.761719 C 55.042969 35.570312 55.199219 36.113281 55.367188 36.589844 C 55.414062 36.71875 55.457031 36.859375 55.464844 36.894531 C 55.503906 37.089844 55.449219 37.351562 55.347656 37.484375 C 55.273438 37.582031 54.945312 37.765625 54.777344 37.808594 C 54.550781 37.867188 53.808594 37.957031 53.226562 37.996094 C 53.121094 38.003906 53.007812 38.007812 52.972656 38.011719 C 52.941406 38.015625 52.730469 38.023438 52.511719 38.027344 L 52.113281 38.035156 L 52.121094 37.992188 C 52.132812 37.929688 52.203125 37.796875 52.335938 37.59375 C 52.523438 37.308594 52.621094 37.089844 52.734375 36.722656 C 52.890625 36.21875 52.964844 35.722656 52.976562 35.121094 C 52.984375 34.566406 52.96875 34.375 52.855469 33.867188 C 52.808594 33.664062 52.804688 33.613281 52.800781 33.476562 C 52.800781 33.332031 52.804688 33.320312 52.839844 33.222656 C 52.871094 33.144531 52.878906 33.101562 52.878906 33.042969 C 52.878906 32.90625 52.800781 32.605469 52.714844 32.421875 C 52.554688 32.070312 52.078125 31.414062 51.484375 30.71875 C 50.976562 30.117188 50.695312 29.816406 49.621094 28.734375 L 48.742188 27.84375 L 48.734375 27.726562 C 48.710938 27.402344 48.671875 26.976562 48.644531 26.742188 C 48.585938 26.210938 48.449219 25.320312 48.386719 25.066406 C 48.289062 24.667969 48.132812 24.261719 47.890625 23.78125 C 47.738281 23.46875 47.6875 23.320312 47.648438 23.019531 C 47.609375 22.695312 47.585938 22.375 47.539062 21.464844 C 47.507812 20.902344 47.457031 20.226562 47.410156 19.78125 C 47.371094 19.457031 47.386719 19.316406 47.492188 18.851562 C 47.574219 18.480469 47.59375 18.320312 47.582031 18.121094 C 47.570312 17.875 47.527344 17.703125 47.414062 17.460938 C 47.332031 17.289062 47.273438 17.1875 47.042969 16.832031 C 46.574219 16.097656 46.226562 15.488281 46.183594 15.308594 C 46.148438 15.175781 46.070312 15 45.800781 14.4375 C 45.722656 14.273438 45.636719 14.085938 45.605469 14.019531 C 45.578125 13.953125 45.550781 13.894531 45.542969 13.882812 C 45.53125 13.875 45.484375 13.863281 45.414062 13.859375 C 45.28125 13.851562 45.148438 13.882812 44.695312 14.023438 C 44.410156 14.113281 43.777344 14.304688 43.570312 14.371094 L 43.476562 14.398438 L 43.441406 14.363281 C 43.390625 14.320312 43.210938 14.078125 43.210938 14.054688 C 43.210938 14.042969 43.222656 14.042969 43.257812 14.046875 C 43.285156 14.046875 43.3125 14.046875 43.316406 14.042969 C 43.328125 14.039062 43.316406 13.96875 43.296875 13.851562 C 43.21875 13.449219 43.230469 13.015625 43.324219 12.640625 C 43.367188 12.464844 43.457031 12.179688 43.558594 11.902344 C 43.613281 11.75 43.679688 11.566406 43.707031 11.492188 C 43.832031 11.140625 43.929688 10.753906 43.976562 10.429688 C 44.027344 10.097656 44.023438 9.546875 43.96875 9.277344 C 43.933594 9.109375 43.769531 8.632812 43.652344 8.355469 C 43.625 8.300781 43.605469 8.25 43.605469 8.246094 C 43.605469 8.246094 43.617188 8.242188 43.628906 8.242188 C 43.644531 8.242188 43.640625 8.234375 43.613281 8.222656 C 43.59375 8.210938 43.535156 8.136719 43.460938 8.023438 C 43.316406 7.800781 43.132812 7.554688 43.011719 7.421875 C 42.90625 7.308594 42.910156 7.296875 43.066406 7.308594 C 43.125 7.3125 43.175781 7.308594 43.183594 7.304688 C 43.214844 7.289062 42.808594 6.894531 42.746094 6.878906 C 42.730469 6.875 42.695312 6.847656 42.667969 6.824219 C 42.640625 6.796875 42.5625 6.75 42.492188 6.714844 C 42.363281 6.648438 42.277344 6.625 41.996094 6.585938 C 41.859375 6.570312 41.847656 6.5625 41.601562 6.332031 C 41.203125 5.964844 40.804688 5.726562 40.292969 5.546875 C 40.023438 5.453125 39.621094 5.398438 39.386719 5.429688 Z M 37.613281 6.152344 C 37.597656 6.15625 37.570312 6.15625 37.554688 6.152344 C 37.539062 6.152344 37.550781 6.148438 37.582031 6.148438 C 37.613281 6.148438 37.625 6.152344 37.613281 6.152344 Z M 42.613281 6.867188 C 42.601562 6.871094 42.582031 6.871094 42.570312 6.867188 C 42.558594 6.863281 42.570312 6.863281 42.59375 6.863281 C 42.617188 6.863281 42.625 6.863281 42.613281 6.867188 Z M 43.09375 13.683594 C 43.082031 13.703125 43.066406 13.699219 43.058594 13.675781 C 43.046875 13.644531 43.0625 13.628906 43.082031 13.652344 C 43.09375 13.660156 43.097656 13.675781 43.09375 13.683594 Z M 39.90625 40.660156 C 39.957031 40.707031 39.976562 40.914062 39.988281 41.480469 C 39.996094 41.9375 40.011719 42.160156 40.046875 42.503906 C 40.078125 42.785156 40.074219 42.796875 40.003906 42.847656 C 39.941406 42.894531 39.886719 42.875 39.207031 42.550781 C 38.867188 42.386719 38.707031 42.316406 38.597656 42.285156 C 38.421875 42.230469 37.960938 41.976562 37.960938 41.933594 C 37.960938 41.914062 38.132812 41.804688 38.546875 41.5625 C 39.320312 41.105469 39.796875 40.78125 39.796875 40.714844 C 39.796875 40.695312 39.851562 40.636719 39.871094 40.636719 C 39.878906 40.636719 39.894531 40.648438 39.90625 40.660156 Z M 39.90625 40.660156 " fill-opacity="1" fill-rule="nonzero"/></g><path fill="rgb(25.099182%, 25.099182%, 25.489807%)" d="M 24.738281 16.902344 C 24.707031 16.929688 24.707031 16.933594 24.734375 16.910156 C 24.785156 16.871094 24.789062 16.867188 24.78125 16.867188 C 24.777344 16.867188 24.757812 16.882812 24.738281 16.902344 Z M 24.738281 16.902344 " fill-opacity="1" fill-rule="nonzero"/><path fill="rgb(25.099182%, 25.099182%, 25.489807%)" d="M 24.660156 16.964844 C 24.644531 16.984375 24.644531 16.984375 24.664062 16.96875 C 24.683594 16.953125 24.691406 16.941406 24.679688 16.941406 C 24.679688 16.941406 24.667969 16.953125 24.660156 16.964844 Z M 24.660156 16.964844 " fill-opacity="1" fill-rule="nonzero"/><path fill="rgb(25.099182%, 25.099182%, 25.489807%)" d="M 24.605469 17.03125 L 24.582031 17.058594 L 24.609375 17.035156 C 24.625 17.023438 24.636719 17.011719 24.636719 17.007812 C 24.636719 16.996094 24.625 17.003906 24.605469 17.03125 Z M 24.605469 17.03125 " fill-opacity="1" fill-rule="nonzero"/><path fill="rgb(25.099182%, 25.099182%, 25.489807%)" d="M 16.242188 23.886719 C 16.085938 23.925781 15.964844 24.023438 15.898438 24.152344 C 15.84375 24.269531 15.824219 24.363281 15.828125 24.542969 C 15.828125 24.957031 15.980469 25.171875 16.296875 25.222656 C 16.359375 25.230469 17.261719 25.234375 19.433594 25.234375 L 22.484375 25.234375 L 22.484375 23.863281 L 19.394531 23.867188 C 16.738281 23.867188 16.296875 23.867188 16.242188 23.886719 Z M 16.242188 23.886719 " fill-opacity="1" fill-rule="nonzero"/><path fill="rgb(25.099182%, 25.099182%, 25.489807%)" d="M 15.90625 25.988281 C 15.628906 26.042969 15.460938 26.21875 15.402344 26.503906 C 15.375 26.652344 15.382812 26.964844 15.421875 27.097656 C 15.492188 27.332031 15.617188 27.46875 15.828125 27.535156 L 15.910156 27.5625 L 19.539062 27.566406 L 23.164062 27.566406 L 23.164062 25.964844 L 19.585938 25.964844 C 16.191406 25.964844 16.003906 25.964844 15.90625 25.988281 Z M 15.90625 25.988281 " fill-opacity="1" fill-rule="nonzero"/><path fill="rgb(25.099182%, 25.099182%, 25.489807%)" d="M 23.246094 26.753906 C 23.191406 26.761719 23.191406 26.761719 23.320312 26.789062 C 23.351562 26.792969 23.390625 26.804688 23.402344 26.808594 C 23.421875 26.816406 23.425781 26.8125 23.425781 26.777344 C 23.425781 26.742188 23.425781 26.742188 23.359375 26.742188 C 23.324219 26.742188 23.273438 26.746094 23.246094 26.753906 Z M 23.246094 26.753906 " fill-opacity="1" fill-rule="nonzero"/><path fill="rgb(25.099182%, 25.099182%, 25.489807%)" d="M 30.125 26.785156 C 30.132812 26.789062 30.144531 26.789062 30.148438 26.785156 C 30.152344 26.78125 30.144531 26.777344 30.132812 26.777344 C 30.117188 26.777344 30.113281 26.78125 30.125 26.785156 Z M 30.125 26.785156 " fill-opacity="1" fill-rule="nonzero"/><g fill="rgb(0%, 0%, 0%)" fill-opacity="1"><g transform="translate(11.1, 67.387745)"><g><path d="M 1.9375 -6.453125 L 1.9375 -1.296875 L 4.171875 -1.296875 L 4.171875 0 L 0.46875 0 L 0.46875 -6.453125 Z M 1.9375 -6.453125 "/></g></g></g><g fill="rgb(0%, 0%, 0%)" fill-opacity="1"><g transform="translate(15.133541, 67.387745)"><g><path d="M 4.53125 -1.8125 L 1.625 -1.8125 C 1.625 -1.53125 1.710938 -1.320312 1.890625 -1.1875 C 2.078125 -1.050781 2.273438 -0.984375 2.484375 -0.984375 C 2.710938 -0.984375 2.890625 -1.015625 3.015625 -1.078125 C 3.148438 -1.140625 3.300781 -1.257812 3.46875 -1.4375 L 4.46875 -0.9375 C 4.050781 -0.226562 3.359375 0.125 2.390625 0.125 C 1.785156 0.125 1.265625 -0.0820312 0.828125 -0.5 C 0.398438 -0.914062 0.1875 -1.414062 0.1875 -2 C 0.1875 -2.582031 0.398438 -3.082031 0.828125 -3.5 C 1.265625 -3.925781 1.785156 -4.140625 2.390625 -4.140625 C 3.023438 -4.140625 3.539062 -3.953125 3.9375 -3.578125 C 4.34375 -3.210938 4.546875 -2.6875 4.546875 -2 C 4.546875 -1.90625 4.539062 -1.84375 4.53125 -1.8125 Z M 1.65625 -2.578125 L 3.1875 -2.578125 C 3.15625 -2.785156 3.070312 -2.945312 2.9375 -3.0625 C 2.800781 -3.175781 2.628906 -3.234375 2.421875 -3.234375 C 2.191406 -3.234375 2.007812 -3.171875 1.875 -3.046875 C 1.738281 -2.929688 1.664062 -2.773438 1.65625 -2.578125 Z M 1.65625 -2.578125 "/></g></g></g><g fill="rgb(0%, 0%, 0%)" fill-opacity="1"><g transform="translate(19.464707, 67.387745)"><g><path d="M 0.75 -0.484375 C 0.375 -0.898438 0.1875 -1.40625 0.1875 -2 C 0.1875 -2.59375 0.375 -3.097656 0.75 -3.515625 C 1.125 -3.929688 1.597656 -4.140625 2.171875 -4.140625 C 2.703125 -4.140625 3.140625 -3.96875 3.484375 -3.625 L 3.484375 -4.015625 L 4.875 -4.015625 L 4.875 0 L 3.5 0 L 3.5 -0.453125 L 3.484375 -0.453125 C 3.140625 -0.0664062 2.703125 0.125 2.171875 0.125 C 1.597656 0.125 1.125 -0.078125 0.75 -0.484375 Z M 1.921875 -2.6875 C 1.742188 -2.507812 1.65625 -2.28125 1.65625 -2 C 1.65625 -1.726562 1.738281 -1.503906 1.90625 -1.328125 C 2.082031 -1.148438 2.3125 -1.0625 2.59375 -1.0625 C 2.863281 -1.0625 3.082031 -1.148438 3.25 -1.328125 C 3.425781 -1.503906 3.515625 -1.726562 3.515625 -2 C 3.515625 -2.28125 3.425781 -2.507812 3.25 -2.6875 C 3.070312 -2.863281 2.851562 -2.953125 2.59375 -2.953125 C 2.320312 -2.953125 2.097656 -2.863281 1.921875 -2.6875 Z M 1.921875 -2.6875 "/></g></g></g><g fill="rgb(0%, 0%, 0%)" fill-opacity="1"><g transform="translate(24.422442, 67.387745)"><g><path d="M 0.46875 0 L 0.46875 -4.015625 L 1.859375 -4.015625 L 1.859375 -3.4375 L 1.875 -3.4375 C 1.882812 -3.457031 1.898438 -3.484375 1.921875 -3.515625 C 1.941406 -3.546875 1.988281 -3.597656 2.0625 -3.671875 C 2.144531 -3.753906 2.226562 -3.828125 2.3125 -3.890625 C 2.40625 -3.953125 2.519531 -4.007812 2.65625 -4.0625 C 2.800781 -4.113281 2.945312 -4.140625 3.09375 -4.140625 C 3.25 -4.140625 3.398438 -4.117188 3.546875 -4.078125 C 3.691406 -4.035156 3.796875 -3.992188 3.859375 -3.953125 L 3.984375 -3.875 L 3.390625 -2.703125 C 3.222656 -2.847656 2.984375 -2.921875 2.671875 -2.921875 C 2.503906 -2.921875 2.359375 -2.882812 2.234375 -2.8125 C 2.117188 -2.738281 2.035156 -2.648438 1.984375 -2.546875 C 1.941406 -2.441406 1.910156 -2.351562 1.890625 -2.28125 C 1.867188 -2.207031 1.859375 -2.148438 1.859375 -2.109375 L 1.859375 0 Z M 0.46875 0 "/></g></g></g><g fill="rgb(0%, 0%, 0%)" fill-opacity="1"><g transform="translate(27.931234, 67.387745)"><g><path d="M 0.46875 0 L 0.46875 -4.015625 L 1.859375 -4.015625 L 1.859375 -3.59375 L 1.875 -3.59375 C 2.226562 -3.957031 2.609375 -4.140625 3.015625 -4.140625 C 3.210938 -4.140625 3.410156 -4.113281 3.609375 -4.0625 C 3.804688 -4.007812 3.992188 -3.925781 4.171875 -3.8125 C 4.359375 -3.695312 4.503906 -3.539062 4.609375 -3.34375 C 4.722656 -3.144531 4.78125 -2.910156 4.78125 -2.640625 L 4.78125 0 L 3.390625 0 L 3.390625 -2.265625 C 3.390625 -2.472656 3.320312 -2.65625 3.1875 -2.8125 C 3.0625 -2.96875 2.890625 -3.046875 2.671875 -3.046875 C 2.460938 -3.046875 2.273438 -2.960938 2.109375 -2.796875 C 1.941406 -2.640625 1.859375 -2.460938 1.859375 -2.265625 L 1.859375 0 Z M 0.46875 0 "/></g></g></g><g fill="rgb(0%, 0%, 0%)" fill-opacity="1"><g transform="translate(32.716659, 67.387745)"><g><path d="M 0.46875 -2.859375 L 2.984375 -2.859375 L 2.984375 -1.671875 L 0.46875 -1.671875 Z M 0.46875 -2.859375 "/></g></g></g><g fill="rgb(0%, 0%, 0%)" fill-opacity="1"><g transform="translate(35.786849, 67.387745)"><g><path d="M 2.84375 -5.328125 C 2.632812 -5.328125 2.429688 -5.222656 2.234375 -5.015625 C 2.046875 -4.816406 1.910156 -4.613281 1.828125 -4.40625 L 1.6875 -4.109375 L 0.46875 -4.703125 C 0.476562 -4.753906 0.5 -4.820312 0.53125 -4.90625 C 0.570312 -4.988281 0.660156 -5.132812 0.796875 -5.34375 C 0.929688 -5.5625 1.082031 -5.753906 1.25 -5.921875 C 1.414062 -6.085938 1.640625 -6.238281 1.921875 -6.375 C 2.203125 -6.507812 2.507812 -6.578125 2.84375 -6.578125 C 3.257812 -6.578125 3.625 -6.519531 3.9375 -6.40625 C 4.257812 -6.300781 4.503906 -6.171875 4.671875 -6.015625 C 4.847656 -5.859375 4.988281 -5.671875 5.09375 -5.453125 C 5.207031 -5.234375 5.273438 -5.035156 5.296875 -4.859375 C 5.328125 -4.679688 5.34375 -4.5 5.34375 -4.3125 C 5.34375 -4.019531 5.265625 -3.71875 5.109375 -3.40625 C 4.953125 -3.101562 4.765625 -2.828125 4.546875 -2.578125 C 4.328125 -2.335938 4.101562 -2.117188 3.875 -1.921875 C 3.644531 -1.722656 3.453125 -1.566406 3.296875 -1.453125 L 3.0625 -1.296875 L 5.46875 -1.296875 L 5.46875 0 L 0.4375 0 L 0.4375 -0.375 C 0.519531 -0.445312 0.632812 -0.546875 0.78125 -0.671875 C 0.9375 -0.796875 1.203125 -1.035156 1.578125 -1.390625 C 1.960938 -1.753906 2.300781 -2.09375 2.59375 -2.40625 C 2.882812 -2.726562 3.148438 -3.066406 3.390625 -3.421875 C 3.628906 -3.785156 3.75 -4.082031 3.75 -4.3125 C 3.75 -4.394531 3.738281 -4.476562 3.71875 -4.5625 C 3.707031 -4.65625 3.675781 -4.765625 3.625 -4.890625 C 3.570312 -5.023438 3.476562 -5.128906 3.34375 -5.203125 C 3.207031 -5.285156 3.039062 -5.328125 2.84375 -5.328125 Z M 2.84375 -5.328125 "/></g></g></g><g fill="rgb(0%, 0%, 0%)" fill-opacity="1"><g transform="translate(41.292826, 67.387745)"><g><path d="M 0.46875 -2.859375 L 2.984375 -2.859375 L 2.984375 -1.671875 L 0.46875 -1.671875 Z M 0.46875 -2.859375 "/></g></g></g><g fill="rgb(0%, 0%, 0%)" fill-opacity="1"><g transform="translate(44.363016, 67.387745)"><g><path d="M 4.171875 -6.453125 L 4.171875 -5.171875 L 1.9375 -5.171875 L 1.9375 -3.875 L 4.078125 -3.875 L 4.078125 -2.59375 L 1.9375 -2.59375 L 1.9375 -1.296875 L 4.171875 -1.296875 L 4.171875 0 L 0.46875 0 L 0.46875 -6.453125 Z M 4.171875 -6.453125 "/></g></g></g><g fill="rgb(0%, 0%, 0%)" fill-opacity="1"><g transform="translate(48.514045, 67.387745)"><g><path d="M 0.75 -0.484375 C 0.375 -0.898438 0.1875 -1.40625 0.1875 -2 C 0.1875 -2.59375 0.375 -3.097656 0.75 -3.515625 C 1.125 -3.929688 1.597656 -4.140625 2.171875 -4.140625 C 2.703125 -4.140625 3.140625 -3.96875 3.484375 -3.625 L 3.484375 -4.015625 L 4.875 -4.015625 L 4.875 0 L 3.5 0 L 3.5 -0.453125 L 3.484375 -0.453125 C 3.140625 -0.0664062 2.703125 0.125 2.171875 0.125 C 1.597656 0.125 1.125 -0.078125 0.75 -0.484375 Z M 1.921875 -2.6875 C 1.742188 -2.507812 1.65625 -2.28125 1.65625 -2 C 1.65625 -1.726562 1.738281 -1.503906 1.90625 -1.328125 C 2.082031 -1.148438 2.3125 -1.0625 2.59375 -1.0625 C 2.863281 -1.0625 3.082031 -1.148438 3.25 -1.328125 C 3.425781 -1.503906 3.515625 -1.726562 3.515625 -2 C 3.515625 -2.28125 3.425781 -2.507812 3.25 -2.6875 C 3.070312 -2.863281 2.851562 -2.953125 2.59375 -2.953125 C 2.320312 -2.953125 2.097656 -2.863281 1.921875 -2.6875 Z M 1.921875 -2.6875 "/></g></g></g><g fill="rgb(0%, 0%, 0%)" fill-opacity="1"><g transform="translate(53.471781, 67.387745)"><g><path d="M 0.46875 0 L 0.46875 -4.015625 L 1.859375 -4.015625 L 1.859375 -3.4375 L 1.875 -3.4375 C 1.882812 -3.457031 1.898438 -3.484375 1.921875 -3.515625 C 1.941406 -3.546875 1.988281 -3.597656 2.0625 -3.671875 C 2.144531 -3.753906 2.226562 -3.828125 2.3125 -3.890625 C 2.40625 -3.953125 2.519531 -4.007812 2.65625 -4.0625 C 2.800781 -4.113281 2.945312 -4.140625 3.09375 -4.140625 C 3.25 -4.140625 3.398438 -4.117188 3.546875 -4.078125 C 3.691406 -4.035156 3.796875 -3.992188 3.859375 -3.953125 L 3.984375 -3.875 L 3.390625 -2.703125 C 3.222656 -2.847656 2.984375 -2.921875 2.671875 -2.921875 C 2.503906 -2.921875 2.359375 -2.882812 2.234375 -2.8125 C 2.117188 -2.738281 2.035156 -2.648438 1.984375 -2.546875 C 1.941406 -2.441406 1.910156 -2.351562 1.890625 -2.28125 C 1.867188 -2.207031 1.859375 -2.148438 1.859375 -2.109375 L 1.859375 0 Z M 0.46875 0 "/></g></g></g><g fill="rgb(0%, 0%, 0%)" fill-opacity="1"><g transform="translate(56.980574, 67.387745)"><g><path d="M 0.46875 0 L 0.46875 -4.015625 L 1.859375 -4.015625 L 1.859375 -3.59375 L 1.875 -3.59375 C 2.226562 -3.957031 2.609375 -4.140625 3.015625 -4.140625 C 3.210938 -4.140625 3.410156 -4.113281 3.609375 -4.0625 C 3.804688 -4.007812 3.992188 -3.925781 4.171875 -3.8125 C 4.359375 -3.695312 4.503906 -3.539062 4.609375 -3.34375 C 4.722656 -3.144531 4.78125 -2.910156 4.78125 -2.640625 L 4.78125 0 L 3.390625 0 L 3.390625 -2.265625 C 3.390625 -2.472656 3.320312 -2.65625 3.1875 -2.8125 C 3.0625 -2.96875 2.890625 -3.046875 2.671875 -3.046875 C 2.460938 -3.046875 2.273438 -2.960938 2.109375 -2.796875 C 1.941406 -2.640625 1.859375 -2.460938 1.859375 -2.265625 L 1.859375 0 Z M 0.46875 0 "/></g></g></g><g fill="rgb(0%, 0%, 0%)" fill-opacity="1"><g transform="translate(61.763655, 67.387745)"><g/></g></g></svg>