<svg xmlns="http://www.w3.org/2000/svg" xmlns:xlink="http://www.w3.org/1999/xlink" width="100" zoomAndPan="magnify" viewBox="0 0 75 74.999997" height="100" preserveAspectRatio="xMidYMid meet" version="1.0"><defs><clipPath id="id1"><path d="M 26.1875 4.390625 L 46.4375 4.390625 L 46.4375 24.640625 L 26.1875 24.640625 Z M 26.1875 4.390625 " clip-rule="nonzero"/></clipPath><clipPath id="id2"><path d="M 27.011719 51.601562 L 45.011719 51.601562 L 45.011719 69.601562 L 27.011719 69.601562 Z M 27.011719 51.601562 " clip-rule="nonzero"/></clipPath></defs><rect x="-7.5" width="90" fill="rgb(100%, 100%, 100%)" y="-7.5" height="89.999996" fill-opacity="1"/><rect x="-7.5" width="90" fill="rgb(25.099182%, 25.099182%, 25.489807%)" y="-7.5" height="89.999996" fill-opacity="1"/><rect x="-7.5" width="90" fill="rgb(100%, 100%, 100%)" y="-7.5" height="89.999996" fill-opacity="1"/><rect x="-7.5" width="90" fill="rgb(25.099182%, 25.099182%, 25.489807%)" y="-7.5" height="89.999996" fill-opacity="1"/><path fill="rgb(0%, 0%, 0%)" d="M 20.589844 45.285156 C 20.589844 44.261719 20.691406 43.25 20.890625 42.246094 C 21.089844 41.246094 21.386719 40.269531 21.777344 39.328125 C 22.167969 38.382812 22.648438 37.484375 23.214844 36.636719 C 23.785156 35.785156 24.429688 35 25.152344 34.273438 C 25.875 33.550781 26.660156 32.90625 27.511719 32.339844 C 28.359375 31.769531 29.257812 31.292969 30.203125 30.898438 C 31.148438 30.507812 32.121094 30.214844 33.125 30.015625 C 34.125 29.816406 35.140625 29.714844 36.160156 29.714844 C 37.183594 29.714844 38.195312 29.816406 39.199219 30.015625 C 40.203125 30.214844 41.175781 30.507812 42.121094 30.898438 C 43.0625 31.292969 43.960938 31.769531 44.8125 32.339844 C 45.660156 32.90625 46.449219 33.550781 47.171875 34.273438 C 47.894531 35 48.539062 35.785156 49.109375 36.636719 C 49.675781 37.484375 50.15625 38.382812 50.546875 39.328125 C 50.9375 40.269531 51.234375 41.246094 51.433594 42.246094 C 51.632812 43.25 51.730469 44.261719 51.730469 45.285156 L 45.503906 45.285156 C 45.503906 44.671875 45.445312 44.0625 45.324219 43.460938 C 45.203125 42.859375 45.027344 42.277344 44.792969 41.710938 C 44.558594 41.144531 44.269531 40.605469 43.929688 40.09375 C 43.589844 39.585938 43.199219 39.113281 42.765625 38.679688 C 42.332031 38.246094 41.863281 37.859375 41.351562 37.515625 C 40.839844 37.175781 40.304688 36.890625 39.738281 36.652344 C 39.167969 36.417969 38.585938 36.242188 37.984375 36.121094 C 37.382812 36.003906 36.773438 35.941406 36.160156 35.941406 C 35.546875 35.941406 34.941406 36.003906 34.339844 36.121094 C 33.738281 36.242188 33.152344 36.417969 32.585938 36.652344 C 32.019531 36.890625 31.480469 37.175781 30.972656 37.515625 C 30.460938 37.859375 29.988281 38.246094 29.554688 38.679688 C 29.121094 39.113281 28.734375 39.585938 28.394531 40.09375 C 28.054688 40.605469 27.765625 41.144531 27.53125 41.710938 C 27.296875 42.277344 27.117188 42.859375 27 43.460938 C 26.878906 44.0625 26.820312 44.671875 26.820312 45.285156 Z M 20.589844 45.285156 " fill-opacity="1" fill-rule="nonzero"/><path fill="rgb(6.669617%, 65.098572%, 23.919678%)" d="M 20.589844 45.285156 C 20.589844 43.910156 20.769531 42.5625 21.128906 41.234375 C 21.484375 39.910156 22.007812 38.652344 22.699219 37.464844 C 23.386719 36.277344 24.21875 35.199219 25.195312 34.230469 C 26.171875 33.265625 27.253906 32.441406 28.445312 31.761719 C 29.640625 31.078125 30.902344 30.566406 32.230469 30.21875 C 33.558594 29.871094 34.910156 29.703125 36.285156 29.714844 C 37.65625 29.726562 39.003906 29.914062 40.328125 30.28125 C 41.652344 30.652344 42.90625 31.183594 44.085938 31.882812 L 40.917969 37.242188 C 40.207031 36.824219 39.457031 36.503906 38.660156 36.285156 C 37.867188 36.0625 37.058594 35.949219 36.234375 35.941406 C 35.410156 35.9375 34.601562 36.039062 33.800781 36.246094 C 33.003906 36.453125 32.25 36.761719 31.53125 37.171875 C 30.816406 37.578125 30.167969 38.074219 29.582031 38.652344 C 28.996094 39.234375 28.496094 39.878906 28.082031 40.59375 C 27.667969 41.304688 27.355469 42.058594 27.140625 42.855469 C 26.925781 43.652344 26.820312 44.460938 26.820312 45.285156 Z M 20.589844 45.285156 " fill-opacity="1" fill-rule="nonzero"/><g clip-path="url(#id1)"><path fill="rgb(100%, 87.059021%, 34.899902%)" d="M 36.304688 4.390625 C 30.710938 4.390625 26.1875 8.921875 26.1875 14.515625 C 26.1875 20.109375 30.710938 24.640625 36.304688 24.640625 C 41.902344 24.640625 46.4375 20.109375 46.4375 14.515625 C 46.4375 8.921875 41.902344 4.390625 36.304688 4.390625 Z M 36.3125 22.613281 C 31.835938 22.613281 28.210938 18.988281 28.210938 14.515625 C 28.210938 10.039062 31.835938 6.414062 36.3125 6.414062 C 40.785156 6.414062 44.410156 10.039062 44.410156 14.515625 C 44.410156 18.988281 40.785156 22.613281 36.3125 22.613281 Z M 36.3125 22.613281 " fill-opacity="1" fill-rule="nonzero"/></g><path fill="rgb(100%, 87.059021%, 34.899902%)" d="M 36.816406 9.453125 L 35.300781 9.453125 L 35.300781 15.527344 L 40.609375 18.714844 L 41.375 17.46875 L 36.816406 14.765625 Z M 36.816406 9.453125 " fill-opacity="1" fill-rule="nonzero"/><g clip-path="url(#id2)"><path fill="rgb(6.669617%, 65.098572%, 23.919678%)" d="M 45.011719 60.601562 C 45.011719 65.570312 40.980469 69.601562 36.011719 69.601562 C 31.042969 69.601562 27.011719 65.570312 27.011719 60.601562 C 27.011719 55.632812 31.042969 51.601562 36.011719 51.601562 C 40.980469 51.601562 45.011719 55.632812 45.011719 60.601562 Z M 45.011719 60.601562 " fill-opacity="1" fill-rule="evenodd"/></g><path fill="rgb(92.549133%, 94.119263%, 94.509888%)" d="M 29.914062 60.800781 L 34.6875 65.574219 L 42.109375 58.152344 L 40.519531 56.558594 L 34.6875 62.394531 L 31.503906 59.210938 Z M 29.914062 60.800781 " fill-opacity="1" fill-rule="evenodd"/></svg>