<svg xmlns="http://www.w3.org/2000/svg" xmlns:xlink="http://www.w3.org/1999/xlink" width="40" zoomAndPan="magnify" viewBox="0 0 30 30.000001" height="40" preserveAspectRatio="xMidYMid meet" version="1.0"><defs><g/><clipPath id="id1"><path d="M 0.484375 0 L 29 0 L 29 29.03125 L 0.484375 29.03125 Z M 0.484375 0 " clip-rule="nonzero"/></clipPath></defs><g clip-path="url(#id1)"><path fill="#fbb60c" d="M 14.636719 0 C 6.820312 0 0.484375 6.5 0.484375 14.515625 C 0.484375 22.53125 6.820312 29.03125 14.636719 29.03125 C 22.453125 29.03125 28.789062 22.53125 28.789062 14.515625 C 28.789062 6.5 22.453125 0 14.636719 0 " fill-opacity="1" fill-rule="nonzero"/></g><g fill="#404041" fill-opacity="1"><g transform="translate(8.627791, 20.150005)"><g><path d="M 10.480469 0.589844 C 9.988281 -3.964844 8.183594 -9.714844 5.4375 -14.269531 C 2.6875 -9.714844 0.863281 -3.964844 0.371094 0.589844 C 1.765625 -1.316406 2.804688 -3.53125 3.671875 -5.808594 C 5.140625 -2.90625 6.769531 -1.355469 10.480469 0.589844 Z M 5.4375 -11.089844 C 6.515625 -7.792969 7.832031 -4.277344 9.421875 -1.257812 L 9.320312 -1.175781 C 7.714844 -3.492188 6.300781 -4.964844 3.730469 -5.945312 C 4.355469 -7.652344 4.90625 -9.402344 5.4375 -11.089844 Z M 5.4375 -11.089844 "/></g></g></g><path fill="#404041" d="M 6.277344 20.023438 L 22.9375 20.023438 L 22.9375 24.378906 L 6.277344 24.378906 L 6.277344 20.023438 " fill-opacity="1" fill-rule="nonzero"/></svg>