<svg xmlns="http://www.w3.org/2000/svg" xmlns:xlink="http://www.w3.org/1999/xlink" width="160" zoomAndPan="magnify" viewBox="0 0 120 44.999999" height="60" preserveAspectRatio="xMidYMid meet" version="1.0"><defs><g/></defs><g fill="rgb(100%, 100%, 100%)" fill-opacity="1"><g transform="translate(2.608446, 31.716306)"><g><path d="M 16.953125 -29.203125 L 28.734375 0 L 21.59375 0 L 19.421875 -5.84375 L 8.3125 -5.84375 L 6.15625 0 L -0.984375 0 L 10.796875 -29.203125 Z M 17.171875 -11.671875 L 13.90625 -20.171875 L 13.84375 -20.171875 L 10.578125 -11.671875 Z M 17.171875 -11.671875 "/></g></g></g><g fill="rgb(100%, 100%, 100%)" fill-opacity="1"><g transform="translate(28.58045, 31.716306)"><g><path d="M 2.125 0 L 2.125 -18.15625 L 8.390625 -18.15625 L 8.390625 -16.25 L 8.453125 -16.25 C 10.085938 -17.875 11.820312 -18.6875 13.65625 -18.6875 C 14.976562 -18.6875 16.21875 -18.414062 17.375 -17.875 C 18.53125 -17.332031 19.40625 -16.492188 20 -15.359375 C 21.832031 -17.578125 23.835938 -18.6875 26.015625 -18.6875 C 27.953125 -18.6875 29.613281 -18.144531 31 -17.0625 C 32.394531 -15.976562 33.09375 -14.28125 33.09375 -11.96875 L 33.09375 0 L 26.828125 0 L 26.828125 -10.265625 C 26.828125 -11.234375 26.5625 -12.039062 26.03125 -12.6875 C 25.5 -13.332031 24.703125 -13.65625 23.640625 -13.65625 C 22.722656 -13.65625 22.019531 -13.378906 21.53125 -12.828125 C 21.050781 -12.273438 20.785156 -11.609375 20.734375 -10.828125 L 20.734375 0 L 14.46875 0 L 14.46875 -10.265625 C 14.46875 -11.234375 14.203125 -12.039062 13.671875 -12.6875 C 13.140625 -13.332031 12.347656 -13.65625 11.296875 -13.65625 C 10.328125 -13.65625 9.597656 -13.351562 9.109375 -12.75 C 8.628906 -12.15625 8.390625 -11.441406 8.390625 -10.609375 L 8.390625 0 Z M 2.125 0 "/></g></g></g><g fill="rgb(100%, 100%, 100%)" fill-opacity="1"><g transform="translate(61.664833, 31.716306)"><g><path d="M 2.71875 -28.28125 C 3.457031 -29.007812 4.332031 -29.375 5.34375 -29.375 C 6.351562 -29.375 7.222656 -29.007812 7.953125 -28.28125 C 8.691406 -27.550781 9.0625 -26.675781 9.0625 -25.65625 C 9.0625 -24.644531 8.691406 -23.769531 7.953125 -23.03125 C 7.222656 -22.300781 6.351562 -21.9375 5.34375 -21.9375 C 4.332031 -21.9375 3.457031 -22.300781 2.71875 -23.03125 C 1.988281 -23.769531 1.625 -24.644531 1.625 -25.65625 C 1.625 -26.675781 1.988281 -27.550781 2.71875 -28.28125 Z M 2.125 -18.15625 L 2.125 0 L 8.390625 0 L 8.390625 -18.15625 Z M 2.125 -18.15625 "/></g></g></g><g fill="rgb(100%, 100%, 100%)" fill-opacity="1"><g transform="translate(70.581264, 31.716306)"><g><path d="M 2.125 0 L 2.125 -18.15625 L 8.390625 -18.15625 L 8.390625 -16.25 L 8.453125 -16.25 C 10.085938 -17.875 11.820312 -18.6875 13.65625 -18.6875 C 14.550781 -18.6875 15.441406 -18.566406 16.328125 -18.328125 C 17.210938 -18.097656 18.0625 -17.734375 18.875 -17.234375 C 19.695312 -16.734375 20.359375 -16.03125 20.859375 -15.125 C 21.367188 -14.21875 21.625 -13.164062 21.625 -11.96875 L 21.625 0 L 15.359375 0 L 15.359375 -10.265625 C 15.359375 -11.203125 15.054688 -12.023438 14.453125 -12.734375 C 13.847656 -13.441406 13.066406 -13.796875 12.109375 -13.796875 C 11.160156 -13.796875 10.300781 -13.429688 9.53125 -12.703125 C 8.769531 -11.972656 8.390625 -11.160156 8.390625 -10.265625 L 8.390625 0 Z M 2.125 0 "/></g></g></g><g fill="rgb(100%, 100%, 100%)" fill-opacity="1"><g transform="translate(92.200915, 31.716306)"><g><path d="M 3.359375 -2.25 C 1.660156 -4.101562 0.8125 -6.375 0.8125 -9.0625 C 0.8125 -11.75 1.660156 -14.023438 3.359375 -15.890625 C 5.054688 -17.753906 7.21875 -18.6875 9.84375 -18.6875 C 12.25 -18.6875 14.226562 -17.929688 15.78125 -16.421875 L 15.78125 -18.15625 L 22.046875 -18.15625 L 22.046875 0 L 15.859375 0 L 15.859375 -2.046875 L 15.78125 -2.046875 C 14.226562 -0.328125 12.25 0.53125 9.84375 0.53125 C 7.21875 0.53125 5.054688 -0.394531 3.359375 -2.25 Z M 8.6875 -12.140625 C 7.875 -11.335938 7.46875 -10.3125 7.46875 -9.0625 C 7.46875 -7.8125 7.851562 -6.789062 8.625 -6 C 9.40625 -5.207031 10.4375 -4.8125 11.71875 -4.8125 C 12.9375 -4.8125 13.941406 -5.210938 14.734375 -6.015625 C 15.523438 -6.816406 15.921875 -7.832031 15.921875 -9.0625 C 15.921875 -10.3125 15.515625 -11.335938 14.703125 -12.140625 C 13.890625 -12.941406 12.894531 -13.34375 11.71875 -13.34375 C 10.507812 -13.34375 9.5 -12.941406 8.6875 -12.140625 Z M 8.6875 -12.140625 "/></g></g></g></svg>