<svg xmlns="http://www.w3.org/2000/svg" xmlns:xlink="http://www.w3.org/1999/xlink" width="160" zoomAndPan="magnify" viewBox="0 0 120 44.999999" height="60" preserveAspectRatio="xMidYMid meet" version="1.0"><defs><g/></defs><g fill="rgb(6.669617%, 65.098572%, 23.919678%)" fill-opacity="1"><g transform="translate(0.911292, 33.49943)"><g><path d="M 17.53125 -30.1875 L 29.71875 0 L 22.328125 0 L 20.09375 -6.03125 L 8.59375 -6.03125 L 6.375 0 L -1.03125 0 L 11.15625 -30.1875 Z M 17.75 -12.078125 L 14.375 -20.859375 L 14.3125 -20.859375 L 10.9375 -12.078125 Z M 17.75 -12.078125 "/></g></g></g><g fill="rgb(6.669617%, 65.098572%, 23.919678%)" fill-opacity="1"><g transform="translate(27.754491, 33.49943)"><g><path d="M 2.203125 0 L 2.203125 -18.765625 L 8.671875 -18.765625 L 8.671875 -16.796875 L 8.75 -16.796875 C 10.425781 -18.484375 12.21875 -19.328125 14.125 -19.328125 C 15.488281 -19.328125 16.769531 -19.046875 17.96875 -18.484375 C 19.164062 -17.921875 20.066406 -17.050781 20.671875 -15.875 C 22.578125 -18.175781 24.648438 -19.328125 26.890625 -19.328125 C 28.890625 -19.328125 30.609375 -18.765625 32.046875 -17.640625 C 33.492188 -16.515625 34.21875 -14.757812 34.21875 -12.375 L 34.21875 0 L 27.734375 0 L 27.734375 -10.609375 C 27.734375 -11.609375 27.457031 -12.441406 26.90625 -13.109375 C 26.363281 -13.785156 25.539062 -14.125 24.4375 -14.125 C 23.488281 -14.125 22.765625 -13.835938 22.265625 -13.265625 C 21.765625 -12.691406 21.488281 -12.003906 21.4375 -11.203125 L 21.4375 0 L 14.96875 0 L 14.96875 -10.609375 C 14.96875 -11.609375 14.691406 -12.441406 14.140625 -13.109375 C 13.585938 -13.785156 12.765625 -14.125 11.671875 -14.125 C 10.671875 -14.125 9.921875 -13.8125 9.421875 -13.1875 C 8.921875 -12.570312 8.671875 -11.835938 8.671875 -10.984375 L 8.671875 0 Z M 2.203125 0 "/></g></g></g><g fill="rgb(6.669617%, 65.098572%, 23.919678%)" fill-opacity="1"><g transform="translate(61.948906, 33.49943)"><g><path d="M 2.8125 -29.234375 C 3.570312 -29.992188 4.472656 -30.375 5.515625 -30.375 C 6.566406 -30.375 7.472656 -29.992188 8.234375 -29.234375 C 8.992188 -28.484375 9.375 -27.582031 9.375 -26.53125 C 9.375 -25.476562 8.992188 -24.570312 8.234375 -23.8125 C 7.472656 -23.0625 6.566406 -22.6875 5.515625 -22.6875 C 4.472656 -22.6875 3.570312 -23.0625 2.8125 -23.8125 C 2.0625 -24.570312 1.6875 -25.476562 1.6875 -26.53125 C 1.6875 -27.582031 2.0625 -28.484375 2.8125 -29.234375 Z M 2.203125 -18.765625 L 2.203125 0 L 8.671875 0 L 8.671875 -18.765625 Z M 2.203125 -18.765625 "/></g></g></g><g fill="rgb(6.669617%, 65.098572%, 23.919678%)" fill-opacity="1"><g transform="translate(71.163826, 33.49943)"><g><path d="M 2.203125 0 L 2.203125 -18.765625 L 8.671875 -18.765625 L 8.671875 -16.796875 L 8.75 -16.796875 C 10.425781 -18.484375 12.21875 -19.328125 14.125 -19.328125 C 15.050781 -19.328125 15.972656 -19.203125 16.890625 -18.953125 C 17.804688 -18.710938 18.679688 -18.332031 19.515625 -17.8125 C 20.359375 -17.300781 21.039062 -16.578125 21.5625 -15.640625 C 22.09375 -14.703125 22.359375 -13.613281 22.359375 -12.375 L 22.359375 0 L 15.875 0 L 15.875 -10.609375 C 15.875 -11.585938 15.5625 -12.441406 14.9375 -13.171875 C 14.320312 -13.898438 13.515625 -14.265625 12.515625 -14.265625 C 11.535156 -14.265625 10.648438 -13.882812 9.859375 -13.125 C 9.066406 -12.375 8.671875 -11.535156 8.671875 -10.609375 L 8.671875 0 Z M 2.203125 0 "/></g></g></g><g fill="rgb(6.669617%, 65.098572%, 23.919678%)" fill-opacity="1"><g transform="translate(93.508539, 33.49943)"><g><path d="M 3.46875 -2.328125 C 1.71875 -4.242188 0.84375 -6.59375 0.84375 -9.375 C 0.84375 -12.15625 1.71875 -14.507812 3.46875 -16.4375 C 5.226562 -18.363281 7.460938 -19.328125 10.171875 -19.328125 C 12.660156 -19.328125 14.710938 -18.546875 16.328125 -16.984375 L 16.328125 -18.765625 L 22.796875 -18.765625 L 22.796875 0 L 16.390625 0 L 16.390625 -2.125 L 16.328125 -2.125 C 14.710938 -0.34375 12.660156 0.546875 10.171875 0.546875 C 7.460938 0.546875 5.226562 -0.410156 3.46875 -2.328125 Z M 8.984375 -12.546875 C 8.140625 -11.722656 7.71875 -10.660156 7.71875 -9.359375 C 7.71875 -8.066406 8.117188 -7.015625 8.921875 -6.203125 C 9.734375 -5.390625 10.796875 -4.984375 12.109375 -4.984375 C 13.378906 -4.984375 14.421875 -5.394531 15.234375 -6.21875 C 16.054688 -7.050781 16.46875 -8.101562 16.46875 -9.375 C 16.46875 -10.664062 16.046875 -11.722656 15.203125 -12.546875 C 14.359375 -13.378906 13.328125 -13.796875 12.109375 -13.796875 C 10.867188 -13.796875 9.828125 -13.378906 8.984375 -12.546875 Z M 8.984375 -12.546875 "/></g></g></g></svg>