<svg xmlns="http://www.w3.org/2000/svg" xmlns:xlink="http://www.w3.org/1999/xlink" width="160" zoomAndPan="magnify" viewBox="0 0 120 44.999999" height="60" preserveAspectRatio="xMidYMid meet" version="1.0"><defs><g/></defs><g fill="rgb(65.098572%, 65.098572%, 65.098572%)" fill-opacity="1"><g transform="translate(1.314905, 33.472121)"><g><path d="M 17.578125 -30.265625 L 29.796875 0 L 22.375 0 L 20.140625 -6.046875 L 8.625 -6.046875 L 6.390625 0 L -1.03125 0 L 11.1875 -30.265625 Z M 17.796875 -12.109375 L 14.421875 -20.90625 L 14.34375 -20.90625 L 10.96875 -12.109375 Z M 17.796875 -12.109375 "/></g></g></g><g fill="rgb(65.098572%, 65.098572%, 65.098572%)" fill-opacity="1"><g transform="translate(28.221869, 33.472121)"><g><path d="M 2.203125 0 L 2.203125 -18.828125 L 8.6875 -18.828125 L 8.6875 -16.84375 L 8.765625 -16.84375 C 10.453125 -18.53125 12.25 -19.375 14.15625 -19.375 C 15.53125 -19.375 16.816406 -19.09375 18.015625 -18.53125 C 19.210938 -17.96875 20.117188 -17.097656 20.734375 -15.921875 C 22.640625 -18.222656 24.71875 -19.375 26.96875 -19.375 C 28.96875 -19.375 30.6875 -18.8125 32.125 -17.6875 C 33.570312 -16.5625 34.296875 -14.800781 34.296875 -12.40625 L 34.296875 0 L 27.8125 0 L 27.8125 -10.640625 C 27.8125 -11.640625 27.535156 -12.472656 26.984375 -13.140625 C 26.429688 -13.816406 25.601562 -14.15625 24.5 -14.15625 C 23.550781 -14.15625 22.828125 -13.867188 22.328125 -13.296875 C 21.828125 -12.722656 21.550781 -12.03125 21.5 -11.21875 L 21.5 0 L 15 0 L 15 -10.640625 C 15 -11.640625 14.722656 -12.472656 14.171875 -13.140625 C 13.628906 -13.816406 12.804688 -14.15625 11.703125 -14.15625 C 10.703125 -14.15625 9.945312 -13.84375 9.4375 -13.21875 C 8.9375 -12.601562 8.6875 -11.863281 8.6875 -11 L 8.6875 0 Z M 2.203125 0 "/></g></g></g><g fill="rgb(65.098572%, 65.098572%, 65.098572%)" fill-opacity="1"><g transform="translate(62.49751, 33.472121)"><g><path d="M 2.828125 -29.3125 C 3.585938 -30.070312 4.492188 -30.453125 5.546875 -30.453125 C 6.597656 -30.453125 7.5 -30.070312 8.25 -29.3125 C 9.007812 -28.550781 9.390625 -27.644531 9.390625 -26.59375 C 9.390625 -25.539062 9.007812 -24.632812 8.25 -23.875 C 7.5 -23.125 6.597656 -22.75 5.546875 -22.75 C 4.492188 -22.75 3.585938 -23.125 2.828125 -23.875 C 2.066406 -24.632812 1.6875 -25.539062 1.6875 -26.59375 C 1.6875 -27.644531 2.066406 -28.550781 2.828125 -29.3125 Z M 2.203125 -18.828125 L 2.203125 0 L 8.6875 0 L 8.6875 -18.828125 Z M 2.203125 -18.828125 "/></g></g></g><g fill="rgb(65.098572%, 65.098572%, 65.098572%)" fill-opacity="1"><g transform="translate(71.73432, 33.472121)"><g><path d="M 2.203125 0 L 2.203125 -18.828125 L 8.6875 -18.828125 L 8.6875 -16.84375 L 8.765625 -16.84375 C 10.453125 -18.53125 12.25 -19.375 14.15625 -19.375 C 15.09375 -19.375 16.019531 -19.25 16.9375 -19 C 17.851562 -18.757812 18.734375 -18.378906 19.578125 -17.859375 C 20.421875 -17.347656 21.101562 -16.617188 21.625 -15.671875 C 22.15625 -14.734375 22.421875 -13.644531 22.421875 -12.40625 L 22.421875 0 L 15.921875 0 L 15.921875 -10.640625 C 15.921875 -11.617188 15.609375 -12.472656 14.984375 -13.203125 C 14.359375 -13.941406 13.546875 -14.3125 12.546875 -14.3125 C 11.566406 -14.3125 10.675781 -13.929688 9.875 -13.171875 C 9.082031 -12.410156 8.6875 -11.566406 8.6875 -10.640625 L 8.6875 0 Z M 2.203125 0 "/></g></g></g><g fill="rgb(65.098572%, 65.098572%, 65.098572%)" fill-opacity="1"><g transform="translate(94.132112, 33.472121)"><g><path d="M 3.484375 -2.328125 C 1.722656 -4.242188 0.84375 -6.597656 0.84375 -9.390625 C 0.84375 -12.179688 1.722656 -14.539062 3.484375 -16.46875 C 5.242188 -18.40625 7.484375 -19.375 10.203125 -19.375 C 12.691406 -19.375 14.742188 -18.585938 16.359375 -17.015625 L 16.359375 -18.828125 L 22.859375 -18.828125 L 22.859375 0 L 16.4375 0 L 16.4375 -2.125 L 16.359375 -2.125 C 14.742188 -0.34375 12.691406 0.546875 10.203125 0.546875 C 7.484375 0.546875 5.242188 -0.410156 3.484375 -2.328125 Z M 9 -12.578125 C 8.15625 -11.753906 7.734375 -10.691406 7.734375 -9.390625 C 7.734375 -8.097656 8.132812 -7.039062 8.9375 -6.21875 C 9.75 -5.394531 10.816406 -4.984375 12.140625 -4.984375 C 13.410156 -4.984375 14.457031 -5.398438 15.28125 -6.234375 C 16.101562 -7.066406 16.515625 -8.117188 16.515625 -9.390625 C 16.515625 -10.691406 16.09375 -11.753906 15.25 -12.578125 C 14.40625 -13.410156 13.367188 -13.828125 12.140625 -13.828125 C 10.890625 -13.828125 9.84375 -13.410156 9 -12.578125 Z M 9 -12.578125 "/></g></g></g></svg>